<svg width="27" height="23" viewBox="0 0 27 23" fill="none" xmlns="http://www.w3.org/2000/svg">
<path d="M24.3287 6.20426C24.3391 6.43317 24.3391 6.66204 24.3391 6.89096C24.3383 12.4347 21.3158 17.5372 16.4545 20.2019C11.5932 22.8665 5.66592 22.6695 0.992188 19.6881C1.41337 19.7385 1.83728 19.7629 2.26148 19.7609C4.66501 19.7639 6.99956 18.9576 8.88895 17.472C6.60636 17.4309 4.60293 15.9419 3.90535 13.7681C4.70323 13.9191 5.52499 13.8871 6.30871 13.6745C3.82173 13.1663 2.03489 10.9795 2.03261 8.44116V8.36833C2.77385 8.77647 3.60069 9.00458 4.44635 9.03423C2.10575 7.46383 1.38257 4.34822 2.7921 1.90736C5.50134 5.24138 9.49869 7.26842 13.7893 7.48398C13.7021 7.08401 13.6568 6.67606 13.654 6.26671C13.6537 4.07708 14.9909 2.10941 17.0269 1.30372C19.0629 0.498033 21.3845 1.01784 22.8825 2.61482C24.0788 2.38272 25.2262 1.94631 26.2743 1.32472C25.8743 2.56192 25.0387 3.61185 23.9229 4.27949C24.982 4.15154 26.0163 3.86755 26.9922 3.43675C26.2757 4.51007 25.3738 5.44721 24.3287 6.20426Z" fill="#262626"/>
</svg>
