<svg width="24" height="24" viewBox="0 0 24 24" fill="none" xmlns="http://www.w3.org/2000/svg">
<path d="M23.9999 1.32468V22.6756C23.9998 23.4071 23.4068 24.0001 22.6753 24.0002H16.5594V14.7061H19.6792L20.1462 11.084H16.5594V8.77144C16.5594 7.72274 16.8506 7.00809 18.3545 7.00809L20.2725 7.00721V3.76764C19.3442 3.66927 18.4112 3.62163 17.4776 3.62493C14.7122 3.62493 12.819 5.31293 12.819 8.4128V11.084H9.6914V14.7061H12.819V24.0002H1.3245C0.97318 24.0002 0.636244 23.8607 0.387824 23.6123C0.139405 23.3638 -0.000145928 23.0269 -0.000122055 22.6756V1.32468C-0.000175113 0.973354 0.139366 0.636401 0.387792 0.387975C0.636218 0.139549 0.973171 7.99251e-06 1.3245 6.10503e-05H22.6753C23.0266 6.105e-05 23.3635 0.13962 23.6119 0.388036C23.8603 0.636452 23.9999 0.973375 23.9999 1.32468Z" fill="#262626"/>
</svg>
