<svg width="36" height="36" viewBox="0 0 36 36" fill="none" xmlns="http://www.w3.org/2000/svg">
<path fill-rule="evenodd" clip-rule="evenodd" d="M7.64001 15.9916C12 9.91944 13.5469 8.1887 13.2888 4.67373C13.0306 1.15876 13.7691 0.192269 15.5258 0.0191947C17.2826 -0.15388 20.5811 0.75233 21.1602 6.5056C21.4101 8.99476 19.531 13.8953 19.531 13.8953L32.6799 13.9021C34.5415 13.9021 36 14.6557 36 17.0573C36 19.3073 33.37 19.984 33.37 19.984C34.4129 20.4281 35.075 21.4174 35.0527 22.4985C35.059 24.0237 33.7615 25.2677 32.1481 25.2832C33.2518 25.7025 33.8822 26.8061 33.6477 27.9085C33.4476 29.2297 32.366 30.2766 30.9735 30.4968C31.8854 31.1067 32.2624 32.212 31.8992 33.2106C31.3088 34.5291 29.7506 35.9827 26.2505 35.9827H9.89972C8.92661 36.0991 7.98234 35.6198 7.54744 34.7887V16.7267C7.54067 16.4787 7.57185 16.2312 7.64001 15.9916ZM0 14.8307H6.3965V35.9788H0V14.8307Z" fill="white"/>
</svg>
